<svg width="40" height="40" viewBox="0 0 40 40" fill="none" xmlns="http://www.w3.org/2000/svg">
<path d="M37.5 35C37.1875 35 36.5365 34.5573 35.5469 33.6719C34.6875 33.3854 34.0885 33.4115 33.75 33.75C33.4115 34.0885 33.3854 34.6875 33.6719 35.5469C34.5573 36.5365 35 37.1875 35 37.5C35 38.1771 34.7526 38.763 34.2578 39.2578C33.763 39.7526 33.1706 40 32.4805 40C31.7904 40 31.2044 39.7526 30.7227 39.2578C30.2409 38.763 30 38.1771 30 37.5C30 37.1875 29.9479 36.8294 29.8438 36.4258C29.7396 36.0221 29.4922 35.4036 29.1016 34.5703C28.7109 33.737 28.3854 33.0534 28.125 32.5195C27.8646 31.9857 27.3568 30.9505 26.6016 29.4141L23.7891 26.7578C23.8151 26.7057 23.9062 26.5495 24.0625 26.2891C24.2188 26.0286 24.3685 25.7943 24.5117 25.5859C24.6549 25.3776 24.8177 25.1823 25 25C25.1823 24.8177 25.3711 24.6549 25.5664 24.5117C25.7617 24.3685 25.9831 24.2253 26.2305 24.082C26.4779 23.9388 26.6406 23.8411 26.7188 23.7891L29.4141 26.6016C30.9505 27.3568 31.9857 27.8646 32.5195 28.125C33.0534 28.3854 33.737 28.7109 34.5703 29.1016C35.4036 29.4922 36.0221 29.7396 36.4258 29.8438C36.8294 29.9479 37.1875 30 37.5 30C38.1771 30 38.763 30.2474 39.2578 30.7422C39.7526 31.237 40 31.8294 40 32.5195C40 33.2096 39.7526 33.7956 39.2578 34.2773C38.763 34.7591 38.1771 35 37.5 35ZM23.75 23.75C23.4375 24.0625 23.1576 24.4531 22.9102 24.9219C22.6628 25.3906 22.4284 25.7292 22.207 25.9375C21.9857 26.1458 21.6667 26.25 21.25 26.25C20.1042 26.25 19.0169 26.1198 17.9883 25.8594C16.9596 25.599 16.1133 25.293 15.4492 24.9414C14.7852 24.5898 13.9388 24.1732 12.9102 23.6914C11.8815 23.2096 10.9115 22.8125 10 22.5C6.19792 21.224 3.58073 19.7982 2.14844 18.2227C0.716146 16.6471 0 14.3229 0 11.25C0 8.15104 1.10026 5.5013 3.30078 3.30078C5.5013 1.10026 8.15104 0 11.25 0C14.3229 0 16.6471 0.716146 18.2227 2.14844C19.7982 3.58073 21.224 6.19792 22.5 10C22.8646 11.0677 23.3919 12.2721 24.082 13.6133C24.7721 14.9544 25.306 16.1914 25.6836 17.3242C26.0612 18.457 26.25 19.7656 26.25 21.25C26.25 21.6406 26.1393 21.9466 25.918 22.168C25.6966 22.3893 25.3516 22.6367 24.8828 22.9102C24.4141 23.1836 24.0365 23.4635 23.75 23.75Z" fill="#682500"/>
</svg>
