<svg width="40" height="40" viewBox="0 0 40 40" fill="none" xmlns="http://www.w3.org/2000/svg">
<path d="M37.3634 24.0358C36.7435 24.0222 36.273 24.285 35.9074 24.6948C35.176 31.1044 32.152 37.5779 20.2734 37.5779C8.56729 37.5779 5.12659 30.8185 4.19909 24.6773C3.83565 24.2776 3.37002 24.0224 2.75909 24.0358C-0.387399 24.1045 -0.503571 18.7861 2.64291 18.7174C4.27276 18.7174 6.15299 14.627 9.89791 13.1398L8.17096 19.7516L7.68854 20.0674H32.4341L31.9517 19.7516L30.2247 13.1398C33.9696 14.627 35.8499 18.7174 37.4797 18.7174C40.626 18.7861 40.5099 24.1044 37.3634 24.0358Z" fill="#2B3B47"/>
<path d="M36.1286 20.0672C36.1286 25.0136 28.9104 29.0234 20.0062 29.0234C11.1021 29.0234 3.88397 25.0136 3.88397 20.0672C3.88397 15.1209 11.1022 11.1111 20.0063 11.1111C28.9105 11.1111 36.1286 15.1209 36.1286 20.0672Z" fill="#597B91"/>
<path d="M34.1566 21.23C34.1566 25.1972 27.8212 28.4133 20.0063 28.4133C12.1914 28.4133 5.85602 25.1972 5.85602 21.23C5.85602 17.2627 12.1913 14.0467 20.0063 14.0467C27.8212 14.0467 34.1566 17.2628 34.1566 21.23Z" fill="#F9E7C0"/>
<path d="M20.624 13.6132C21.2251 11.7965 20.0341 11.9758 19.0461 13.9026C19.0335 13.9009 19.0208 13.8993 19.0082 13.8979C19.5684 12.0909 18.2565 12.4037 17.262 14.5637C17.8592 12.9177 16.8477 12.9614 15.828 14.2056C16.044 12.9272 14.9176 13.3275 14.0193 15.2118C13.6073 15.1397 13.4346 15.3844 13.6819 15.9101C13.6124 15.9359 13.5436 15.9634 13.4755 15.9924C12.1718 14.9454 11.3208 15.2515 12.3447 16.6244L12.3262 16.6373C10.7947 15.0992 9.58569 15.2318 10.5712 16.6573C10.5533 16.6627 10.5352 16.6688 10.5166 16.6755C9.06709 15.2931 7.96405 15.4373 8.86053 16.7758C8.61389 16.7938 8.32217 16.8362 7.97655 16.9098C5.43537 17.4505 6.36678 18.5544 8.88365 18.123C7.7249 19.6458 8.90951 19.8631 10.4701 18.3619C10.4816 18.3678 10.493 18.3733 10.5044 18.3788C9.3874 19.9057 10.7297 20.0361 12.3721 18.3166C11.2726 19.6791 12.2433 19.9665 13.612 19.1211C12.9237 20.3861 14.4747 20.2307 16.1427 18.2076C16.6222 18.2015 17.2289 18.1118 17.9259 17.8973C17.9259 17.8973 18.0891 17.5987 17.9922 17.3448C18.8094 17.3708 18.8992 16.8198 17.6637 16.0414C19.7269 17.1258 20.9437 16.6082 19.5044 15.5477C19.5194 15.5368 19.5347 15.5251 19.55 15.5128C21.37 16.3492 22.3664 15.8544 21.0837 14.8798C21.3111 14.7826 21.5732 14.6479 21.8762 14.466C24.1037 13.1287 22.8642 12.3874 20.624 13.6132ZM11.2558 17.4871L11.2602 17.4815L11.2796 17.5012L11.2725 17.5081L11.2558 17.4871ZM13.0677 17.4919C13.0744 17.483 13.0811 17.4744 13.0877 17.4655L13.0876 17.4644C13.1069 17.4832 13.126 17.5012 13.145 17.5191C13.1336 17.5287 13.1222 17.5385 13.1108 17.5484C13.0965 17.5295 13.0822 17.5106 13.0677 17.4919ZM16.813 15.53C16.8327 15.5433 16.8523 15.5564 16.872 15.5694C16.8686 15.58 16.8651 15.5903 16.8617 15.6008L16.8622 15.6019C16.8377 15.5904 16.8139 15.5796 16.7901 15.5688C16.7977 15.556 16.8054 15.5431 16.813 15.53ZM18.5646 14.9708L18.5872 14.9852L18.5848 14.9919C18.5765 14.9876 18.5684 14.9837 18.5601 14.9796L18.5646 14.9708ZM16.5657 17.0497C16.4451 16.9529 16.3009 16.851 16.1326 16.7449C16.3273 16.8477 16.5267 16.9414 16.7301 17.0257C16.6775 17.0325 16.6224 17.0406 16.5657 17.0497Z" fill="#2ABA34"/>
<path d="M26.2793 15.68C29.5605 15.68 29.5605 19.0116 26.2793 19.0116C22.998 19.0116 22.998 15.68 26.2793 15.68ZM28.7402 22.8959C32.0215 22.8959 32.0215 19.5643 28.7402 19.5643C25.459 19.5643 25.459 22.8959 28.7402 22.8959ZM27.0605 26.1498C30.3418 26.1498 30.3418 22.8182 27.0605 22.8182C23.7793 22.8182 23.7793 26.1498 27.0605 26.1498Z" fill="#F9F9F7"/>
<path d="M25.0531 21.9922C24.9919 22.0739 24.903 22.1304 24.8032 22.1513C24.7033 22.1721 24.5992 22.1559 24.5104 22.1056L24.4766 22.0864L24.2858 21.9781C24.2234 21.9459 24.1443 21.9103 24.0564 21.8674C23.9645 21.8302 23.8617 21.7864 23.7463 21.7463C23.6295 21.7091 23.5051 21.6653 23.3679 21.6352C23.2336 21.5966 23.087 21.5763 22.9385 21.5481L22.7097 21.523C22.6329 21.5121 22.5545 21.5106 22.4759 21.5085L22.3578 21.5046L22.2987 21.5024L22.2395 21.5054L22.0031 21.516C21.9246 21.522 21.8471 21.5355 21.77 21.5442L21.6549 21.5588L21.5425 21.5839C21.4682 21.601 21.3942 21.6146 21.3223 21.6328L21.1137 21.6992C21.0796 21.7103 21.0456 21.7197 21.0125 21.7314L20.9167 21.7726L20.7322 21.8504C20.6155 21.9081 20.5096 21.9712 20.4099 22.0227C20.3228 22.0814 20.2485 22.1349 20.1795 22.1795L20.1297 22.2121L20.072 22.2592L19.9702 22.3421L19.7772 22.4996C19.4422 22.7729 18.9491 22.7229 18.6758 22.3879C18.4025 22.0529 18.4525 21.5598 18.7875 21.2865C18.8118 21.2667 18.837 21.2485 18.8629 21.2321L18.8674 21.2293L19.0785 21.0971C19.1367 21.0607 19.1948 21.0243 19.2529 20.9878L19.3415 20.9404C19.4639 20.8761 19.6031 20.8018 19.7536 20.73C19.9021 20.6727 20.0606 20.606 20.2319 20.5481L20.5002 20.4724L20.6385 20.4342C20.6857 20.4239 20.734 20.416 20.7822 20.4069L21.0759 20.3543C21.1757 20.3418 21.2772 20.3349 21.3788 20.3254L21.5317 20.3125L21.6856 20.3117C21.7883 20.3124 21.8913 20.3092 21.9934 20.3143L22.2985 20.339L22.3742 20.3454L22.449 20.3571L22.5974 20.3807C22.6959 20.396 22.7934 20.4112 22.8876 20.436C22.9822 20.4587 23.0756 20.4797 23.1666 20.5035C23.1877 20.5101 23.2084 20.5164 23.2292 20.5229C23.1387 20.4335 23.0345 20.3502 22.9314 20.2609L22.7461 20.1242C22.6852 20.0762 22.6181 20.0356 22.5512 19.9942L22.4511 19.9314L22.401 19.8999L22.3484 19.8728L22.1386 19.7631C22.0678 19.7289 21.994 19.7017 21.9229 19.6705L21.816 19.6252L21.7063 19.5904C21.6335 19.5678 21.5626 19.5424 21.4913 19.5221L21.2776 19.4748C21.2427 19.4672 21.2084 19.4582 21.174 19.4517L21.0704 19.4392L20.8717 19.4139C20.7418 19.4051 20.6185 19.4064 20.5065 19.4009C20.4017 19.4079 20.3106 19.4168 20.2285 19.4207L20.1691 19.4239L20.0955 19.4356L19.9659 19.4562L19.7199 19.4953C19.2929 19.5633 18.8917 19.2724 18.8237 18.8454C18.7557 18.4185 19.0467 18.0172 19.4736 17.9492C19.5046 17.9443 19.5355 17.9413 19.5661 17.94L19.5714 17.9399L19.8203 17.9317L19.9515 17.9273L20.0259 17.9248L20.1264 17.9283C20.2646 17.9342 20.4223 17.9399 20.5884 17.9535C20.7457 17.9785 20.9162 18.0004 21.0934 18.0364L21.3634 18.1058L21.5022 18.1424C21.5482 18.1571 21.5938 18.1746 21.6402 18.1909L21.9206 18.2931C22.0131 18.3324 22.1044 18.3774 22.197 18.4203L22.3356 18.486L22.4692 18.5625C22.5575 18.6148 22.6481 18.6637 22.734 18.7195L22.9854 18.8941L23.0476 18.9377L23.1064 18.9853L23.2229 19.0803C23.3003 19.1431 23.377 19.2051 23.4459 19.2739C23.5163 19.341 23.5866 19.4062 23.6533 19.4724C23.7802 19.6116 23.9061 19.7417 24.0096 19.8791C24.1196 20.0104 24.2099 20.1458 24.2949 20.2684C24.3774 20.3931 24.4457 20.5128 24.5069 20.6175C24.5627 20.727 24.6125 20.8206 24.6499 20.9004L24.7588 21.1571C24.7745 21.194 24.7841 21.2319 24.7888 21.2698L24.9688 21.4047C25.0129 21.4377 25.0501 21.4791 25.0782 21.5265C25.1063 21.5739 25.1249 21.6264 25.1327 21.681C25.1405 21.7355 25.1375 21.7911 25.1239 21.8445C25.1102 21.8979 25.0862 21.9481 25.0531 21.9922Z" fill="#FF473E"/>
<path d="M18.2638 26.7584C15.7906 26.0773 17.3653 20.7726 20.1067 21.0636C22.8481 21.3546 27.7006 29.3572 18.2638 26.7584ZM16.0652 21.7111C17.2197 19.2076 11.0497 17.1989 9.61172 19.3233C4.12508 27.429 14.9109 24.2146 16.0652 21.7111Z" fill="#E2AF8D"/>
<path d="M13.8609 27.0782C11.3877 26.3971 12.9625 21.0924 15.7039 21.3834C18.4454 21.6745 23.2977 29.677 13.8609 27.0782Z" fill="#D19878"/>
<path d="M18.3158 0.97593L18.45 0.989445C18.5388 1.00413 18.6595 0.99593 18.8408 1.07038C18.9283 1.10241 19.0352 1.13109 19.125 1.19296C19.2184 1.25132 19.3313 1.30476 19.4209 1.39913L19.5693 1.53687C19.6197 1.58531 19.6567 1.64632 19.7027 1.70413C19.8 1.81843 19.8609 1.96023 19.9319 2.1071C20.0476 2.40663 20.1318 2.76023 20.0909 3.13757C20.0546 3.51109 19.9289 3.91366 19.6611 4.25671C19.4027 4.60531 18.99 4.86695 18.5556 4.96656L18.3917 5.00687C18.3716 5.01468 18.3086 5.02499 18.2691 5.03405L18.1336 5.06202L18.034 5.09437C17.9032 5.13116 17.7562 5.20382 17.6291 5.27476C17.3737 5.42765 17.1506 5.63624 16.9955 5.89374C16.8422 6.15015 16.7266 6.43593 16.686 6.73148C16.6427 7.02492 16.6443 7.32054 16.7005 7.59132C16.7569 7.86156 16.8521 8.10937 16.977 8.31812C17.0936 8.50961 17.2391 8.68194 17.4083 8.82898C17.5614 8.96382 17.7209 9.05257 17.854 9.12538C17.9915 9.18812 18.1033 9.23976 18.1836 9.26241L18.3055 9.30554L18.3164 9.30937C18.3414 9.31833 18.3624 9.33599 18.3754 9.35913C18.3885 9.38227 18.3928 9.40934 18.3875 9.43538C18.3823 9.46143 18.3678 9.48472 18.3468 9.50098C18.3258 9.51725 18.2997 9.52541 18.2731 9.52398L18.133 9.51577C18.0408 9.51202 17.9059 9.4946 17.7349 9.45538C17.5673 9.40781 17.356 9.34788 17.1406 9.21632C16.9233 9.09117 16.6916 8.91218 16.4931 8.66601C16.0897 8.18281 15.8178 7.43656 15.8953 6.63741C15.9309 6.24023 16.0435 5.8264 16.2658 5.45437C16.4815 5.08023 16.8062 4.75366 17.1855 4.52171C17.3844 4.41507 17.5744 4.32523 17.8013 4.26374L17.968 4.21835L18.104 4.1932C18.1545 4.1832 18.1827 4.18015 18.2515 4.16437L18.3547 4.13937C18.6287 4.07773 18.8777 3.95851 19.0472 3.75187C19.2187 3.55171 19.3366 3.30335 19.39 3.0464C19.4438 2.78765 19.4187 2.53116 19.3705 2.30226C19.3345 2.19163 19.3054 2.0803 19.2499 1.98866C19.2244 1.94195 19.207 1.88921 19.1767 1.84859L19.0869 1.72921C19.0353 1.64296 18.9555 1.59554 18.8962 1.5321C18.8359 1.46452 18.769 1.43538 18.7109 1.39554C18.6046 1.31187 18.4667 1.27234 18.3882 1.24023L18.2629 1.19038C18.2493 1.18497 18.2369 1.17693 18.2264 1.16672C18.2159 1.15651 18.2075 1.14433 18.2017 1.13088C18.1959 1.11743 18.1928 1.10297 18.1926 1.08832C18.1924 1.07368 18.1951 1.05914 18.2005 1.04554C18.2096 1.02302 18.2258 1.00405 18.2465 0.991495C18.2673 0.978941 18.2916 0.973478 18.3158 0.97593ZM11.8723 5.10241C11.848 5.06442 11.8097 5.0376 11.7657 5.02784C11.7217 5.01808 11.6757 5.02619 11.6377 5.05038L11.5479 5.10757C11.4889 5.15163 11.4046 5.18359 11.2933 5.28671L11.112 5.44984L10.9276 5.6582C10.8062 5.81632 10.6855 6.0089 10.579 6.2357C10.4855 6.46609 10.401 6.72781 10.3671 7.01624C10.3205 7.30421 10.3435 7.61507 10.3955 7.93195C10.4498 8.25062 10.578 8.56632 10.7489 8.86507C10.8426 9.0096 10.9366 9.15695 11.0562 9.28601C11.1128 9.35312 11.1695 9.42062 11.2365 9.47788L11.4103 9.63281C11.5109 9.72609 11.6546 9.83827 11.6966 9.90702C11.7624 9.97406 11.8265 10.0738 11.8913 10.1676C12.0034 10.3655 12.1002 10.5691 12.1566 10.7827C12.2084 10.9955 12.2491 11.2093 12.2464 11.416C12.2539 11.6229 12.2319 11.8205 12.1951 12.0025C12.1683 12.0899 12.1569 12.1817 12.1281 12.2623C12.0978 12.3419 12.0732 12.4216 12.0427 12.4934L11.9511 12.6957C11.916 12.7543 11.8834 12.8094 11.8551 12.8615C11.8009 12.9682 11.7359 13.0351 11.7023 13.0929L11.6455 13.1778L11.6307 13.1998C11.6097 13.2311 11.5997 13.2685 11.6024 13.3061C11.605 13.3437 11.6201 13.3793 11.6452 13.4074C11.6704 13.4354 11.7042 13.4543 11.7412 13.4611C11.7783 13.4678 11.8166 13.462 11.85 13.4446C11.85 13.4446 11.8855 13.4261 11.9519 13.3916C12.0159 13.3533 12.1233 13.3092 12.2318 13.2167C12.2887 13.1732 12.3532 13.1248 12.4184 13.0664L12.6149 12.8605C12.745 12.7033 12.8736 12.5083 12.9855 12.2768C13.0811 12.0412 13.1769 11.7738 13.2067 11.4773C13.2509 11.1822 13.229 10.8626 13.1652 10.5409C13.0992 10.2181 12.9618 9.8989 12.7769 9.60429C12.6763 9.46218 12.5794 9.3196 12.4387 9.17913C12.2969 9.01976 12.2009 8.95929 12.0853 8.8557L11.9279 8.72288C11.8794 8.68937 11.8402 8.64663 11.7998 8.60476C11.7129 8.5264 11.6459 8.43132 11.5741 8.34007C11.448 8.14624 11.3419 7.93898 11.2739 7.72132C11.2103 7.50374 11.1707 7.28132 11.171 7.06749C11.1594 6.85234 11.1927 6.64913 11.2316 6.46202C11.2762 6.27609 11.3371 6.10859 11.4059 5.96484L11.5096 5.76507L11.611 5.6121C11.6624 5.51609 11.7504 5.43718 11.789 5.38499L11.858 5.30413C11.8817 5.27646 11.8958 5.24193 11.8984 5.20562C11.901 5.1693 11.8918 5.13313 11.8723 5.10241ZM27.1469 5.10241C27.1226 5.06442 27.0843 5.0376 27.0403 5.02784C26.9963 5.01808 26.9503 5.02619 26.9123 5.05038L26.8225 5.10757C26.7635 5.15163 26.6792 5.18359 26.5679 5.28671L26.3866 5.44984L26.2022 5.6582C26.0809 5.81632 25.9602 6.0089 25.8536 6.2357C25.7602 6.46609 25.6756 6.72781 25.6417 7.01624C25.5951 7.30421 25.6181 7.61507 25.6702 7.93195C25.7244 8.25062 25.8527 8.56632 26.0235 8.86507C26.1172 9.0096 26.2112 9.15695 26.3308 9.28601C26.3874 9.35312 26.4441 9.42062 26.5111 9.47788L26.6849 9.63281C26.7855 9.72609 26.9292 9.83827 26.9712 9.90702C27.037 9.97406 27.1011 10.0738 27.1659 10.1676C27.278 10.3655 27.3748 10.5691 27.4312 10.7827C27.483 10.9955 27.5237 11.2093 27.521 11.416C27.5285 11.6229 27.5066 11.8205 27.4697 12.0025C27.4429 12.0899 27.4315 12.1817 27.4027 12.2623C27.3724 12.3419 27.3478 12.4216 27.3173 12.4934L27.2257 12.6957C27.1906 12.7543 27.158 12.8094 27.1297 12.8615C27.0755 12.9682 27.0105 13.0351 26.9769 13.0929L26.9201 13.1778L26.9053 13.1998C26.8843 13.2311 26.8744 13.2685 26.877 13.3061C26.8796 13.3437 26.8947 13.3793 26.9198 13.4074C26.945 13.4354 26.9788 13.4543 27.0158 13.4611C27.0529 13.4678 27.0912 13.462 27.1246 13.4446C27.1246 13.4446 27.1601 13.4261 27.2266 13.3916C27.2905 13.3533 27.3979 13.3092 27.5064 13.2167C27.5633 13.1732 27.6278 13.1248 27.693 13.0664L27.8895 12.8605C28.0196 12.7033 28.1482 12.5083 28.2602 12.2768C28.3557 12.0412 28.4516 11.7738 28.4813 11.4773C28.5255 11.1822 28.5036 10.8626 28.4398 10.5409C28.3738 10.2181 28.2364 9.8989 28.0515 9.60429C27.9509 9.46218 27.854 9.3196 27.7133 9.17913C27.5715 9.01976 27.4755 8.95929 27.3599 8.8557L27.2025 8.72288C27.1541 8.68937 27.1148 8.64663 27.0744 8.60476C26.9875 8.5264 26.9205 8.43132 26.8487 8.34007C26.7227 8.14624 26.6166 7.93898 26.5485 7.72132C26.4849 7.50374 26.4453 7.28132 26.4456 7.06749C26.434 6.85234 26.4673 6.64913 26.5062 6.46202C26.5509 6.27609 26.6117 6.10859 26.6805 5.96484L26.7842 5.76507L26.8856 5.6121C26.937 5.51609 27.025 5.43718 27.0636 5.38499L27.1327 5.30413C27.1563 5.27645 27.1704 5.24192 27.173 5.20562C27.1755 5.16931 27.1664 5.13314 27.1469 5.10241ZM21.5359 12.8348C21.5588 12.8184 21.5742 12.7936 21.5788 12.7658C21.5834 12.738 21.5767 12.7095 21.5603 12.6866L21.5216 12.6326C21.4994 12.598 21.4516 12.5442 21.4217 12.4818C21.3835 12.423 21.3462 12.3435 21.3062 12.2521C21.2727 12.1594 21.2382 12.0555 21.2292 11.9412C21.2104 11.8287 21.2228 11.7067 21.2504 11.5865C21.2778 11.4656 21.3337 11.3455 21.4127 11.2341C21.4958 11.1168 21.597 11.0135 21.7125 10.9279C21.7416 10.9045 21.7712 10.8815 21.8052 10.8623L21.9226 10.7869C22.0009 10.7309 22.0652 10.7004 22.1632 10.602C22.3506 10.4316 22.4587 10.2586 22.5615 10.0666C22.6609 9.87788 22.7141 9.67726 22.7516 9.48429C22.7895 9.29062 22.7884 9.09952 22.7757 8.92163C22.7612 8.7432 22.7212 8.57757 22.6712 8.42991C22.6243 8.29564 22.5616 8.16742 22.4844 8.04796C22.4134 7.94234 22.3434 7.85765 22.2751 7.79671C22.2156 7.73015 22.149 7.69546 22.1119 7.66702L22.0522 7.62632C22.0328 7.61299 22.0094 7.60656 21.9859 7.60807C21.9624 7.60957 21.94 7.61892 21.9225 7.63461C21.9049 7.65031 21.8931 7.67145 21.8889 7.69464C21.8848 7.71784 21.8885 7.74176 21.8996 7.76257L21.9087 7.77976L21.9381 7.83562C21.9539 7.87452 21.99 7.9182 22.0148 7.98882C22.0437 8.05585 22.0776 8.13499 22.1017 8.23179C22.1281 8.32663 22.153 8.43421 22.1635 8.55429C22.1827 8.67202 22.1794 8.8032 22.1766 8.93859C22.1737 9.07499 22.1469 9.21617 22.1187 9.35906C22.087 9.50163 22.0357 9.64249 21.9737 9.77617C21.9127 9.90312 21.8202 10.0437 21.7368 10.1209C21.712 10.1598 21.6167 10.2235 21.551 10.2784L21.5476 10.281C21.5429 10.2843 21.5832 10.2571 21.5652 10.2693L21.5631 10.2708L21.5551 10.2766L21.5391 10.2881L21.5072 10.3113L21.4439 10.3579C21.401 10.3873 21.3612 10.4222 21.3222 10.4578C21.1629 10.5937 21.0252 10.7591 20.9294 10.9428C20.8328 11.1245 20.7644 11.3198 20.7527 11.5117C20.7403 11.7017 20.7562 11.883 20.8084 12.0364C20.8555 12.1915 20.9285 12.3174 20.9952 12.4234C21.0701 12.5234 21.1402 12.6058 21.2072 12.6683C21.2716 12.7358 21.3221 12.7628 21.3566 12.7924L21.4094 12.8327C21.4275 12.8466 21.4496 12.8543 21.4723 12.8547C21.4951 12.855 21.5174 12.8481 21.5359 12.8348Z" fill="#D7F4F7"/>
</svg>
