<svg width="40" height="41" viewBox="0 0 40 41" fill="none" xmlns="http://www.w3.org/2000/svg">
<path d="M16.25 12.1977H13.75V7.15309C13.75 6.94546 13.8009 6.74105 13.898 6.558C13.9952 6.37496 14.1356 6.21894 14.3069 6.10381L19.9319 2.32033L21.3181 4.4189L16.25 7.82781V12.1977Z" fill="#F9E109"/>
<path d="M21.3188 4.42005L16.25 7.82518V12.1951H13.75V7.15046C13.7501 6.94325 13.8009 6.73926 13.8979 6.55664C13.9949 6.37402 14.1352 6.21843 14.3062 6.1037L14.9375 5.67491C15.4408 5.84264 15.9765 5.88723 16.5003 5.805C17.0241 5.72277 17.521 5.51608 17.95 5.20197L20.5687 3.2787L21.3188 4.42005Z" fill="#FCBC04"/>
<path d="M21.875 38.894H8.125L5.625 16.8237H24.375L21.875 38.894Z" fill="#F8664F"/>
<path d="M6.875 14.3013H23.125C23.4565 14.3013 23.7745 14.4342 24.0089 14.6707C24.2433 14.9072 24.375 15.228 24.375 15.5625V16.8237H5.625V15.5625C5.625 15.228 5.7567 14.9072 5.99112 14.6707C6.22554 14.4342 6.54348 14.3013 6.875 14.3013Z" fill="#84D2F4"/>
<path d="M10 11.779H20C20.3315 11.779 20.6495 11.9119 20.8839 12.1484C21.1183 12.3849 21.25 12.7057 21.25 13.0402V14.3013H8.75V13.0402C8.75 12.7057 8.8817 12.3849 9.11612 12.1484C9.35054 11.9119 9.66848 11.779 10 11.779Z" fill="#84D2F4"/>
<path d="M24.1625 18.7154H10C13.603 22.3502 18.376 24.5646 23.4562 24.9582L21.875 38.894H8.125L5.625 16.8237H24.375L24.1625 18.7154Z" fill="#CC5144"/>
<path d="M24.375 15.5625V16.8237H5.625V15.5625C5.62599 15.2283 5.758 14.9081 5.99221 14.6718C6.22642 14.4355 6.54378 14.3023 6.875 14.3013C6.87599 14.6355 7.008 14.9557 7.24221 15.192C7.47642 15.4283 7.79378 15.5615 8.125 15.5625H24.375Z" fill="#57B7EB"/>
<path d="M21.25 13.0402V14.3013H8.75V13.0402C8.75099 12.706 8.883 12.3858 9.11721 12.1495C9.35142 11.9132 9.66878 11.78 10 11.779C10.001 12.1132 10.133 12.4334 10.3672 12.6697C10.6014 12.906 10.9188 13.0392 11.25 13.0402H21.25Z" fill="#57B7EB"/>
<path d="M28.125 14.9318L26.875 30.6963L26.25 37.6327L29.375 38.2633L31.25 15.5624L29.375 14.5535L28.125 14.9318Z" fill="#E59730"/>
<path d="M24.375 18.0848L25.625 33.2187H29.375L28.125 17.4542L26.25 15.5625L24.375 18.0848Z" fill="#FCBC04"/>
<path d="M29.375 33.2186H25.625L24.375 18.0847L25.1125 17.0947L26.25 26.2822H26.875L27.5563 22.2717L28.125 21.8681L28.5063 22.2528L29.375 33.2186Z" fill="#E59730"/>
<path d="M23.125 19.9765L21.2731 19.3346L20.625 21.2377L23.75 31.327L26.6669 30.0658L23.125 19.9765Z" fill="#F9E109"/>
<path d="M26.6687 30.0657L23.75 31.3268L20.625 21.2375L21.2625 19.3773L22.4062 22.8455C23.0735 24.8702 24.301 26.66 25.9437 28.0037L26.6687 30.0657Z" fill="#FCBC04"/>
<path d="M34.375 15.5625L31.8256 27.5435H34.375L36.25 18.7154L34.375 15.5625Z" fill="#F9E109"/>
<path d="M34.28 21.4427L35.28 17.0803L34.375 15.5625L31.8256 27.5435H34.375L35.2269 23.5337C34.8633 23.3384 34.5736 23.0278 34.4025 22.6499C34.2314 22.272 34.1883 21.8477 34.28 21.4427Z" fill="#FCBC04"/>
<path d="M16.875 19.346L21.25 31.327L23.75 30.6964L19.375 19.346H16.875Z" fill="#F9E109"/>
<path d="M16.875 19.346L21.25 31.327L22.5 31.0117L18.0362 19.346H16.875Z" fill="#FCBC04"/>
<path d="M30.625 17.4542L28.75 32.5882L31.25 31.9576L33.75 18.7154L30.625 17.4542Z" fill="#F9E109"/>
<path d="M32.325 26.2634L31.25 31.9576L28.75 32.5882L30.625 17.4542L31.8375 17.9461L31.3375 25.0275C31.318 25.321 31.4088 25.6112 31.5918 25.8402C31.7748 26.0692 32.0366 26.2204 32.325 26.2634Z" fill="#FCBC04"/>
<path d="M30 33.2187H27.5L28.125 21.8683L30.625 22.4989L30 33.2187Z" fill="#F9E109"/>
<path d="M29.2075 27.2705L29.3488 22.1773L28.125 21.8683L27.5 33.2187H30L30.2456 29.0103C29.9266 28.8498 29.6594 28.601 29.4756 28.2928C29.2917 27.9847 29.1987 27.63 29.2075 27.2705Z" fill="#FCBC04"/>
<path d="M33.125 25.0212C33.125 27.459 30.6069 29.4353 27.5 29.4353C24.3931 29.4353 21.875 27.459 21.875 25.0212H18.75L20.625 38.894H34.375L36.25 25.0212H33.125Z" fill="#84D2F4"/>
<path d="M34.7187 36.3716L34.375 38.894H20.625L18.75 25.0212H21.875C21.8859 25.5548 22.0065 26.0803 22.2292 26.5645C22.4519 27.0486 22.7718 27.4807 23.1687 27.8336C23.5345 30.2125 24.7317 32.3809 26.5439 33.9468C28.3562 35.5127 30.664 36.3728 33.05 36.3716H34.7187Z" fill="#57B7EB"/>
<path d="M27.5 36.3716C28.5355 36.3716 29.375 35.5247 29.375 34.4799C29.375 33.4351 28.5355 32.5882 27.5 32.5882C26.4645 32.5882 25.625 33.4351 25.625 34.4799C25.625 35.5247 26.4645 36.3716 27.5 36.3716Z" fill="#F9E109"/>
<path d="M29.0563 35.5328C28.8322 35.8691 28.5071 36.124 28.1287 36.2599C27.7503 36.3957 27.3386 36.4054 26.9543 36.2875C26.5701 36.1695 26.2335 35.9302 25.9942 35.6048C25.7549 35.2793 25.6254 34.8849 25.625 34.4797C25.6238 34.0936 25.7417 33.7167 25.9625 33.4014C26.851 34.3027 27.9008 35.0259 29.0563 35.5328Z" fill="#FCBC04"/>
<path d="M18.75 32.5882H7.5C6.83696 32.5882 6.20107 32.3224 5.73223 31.8494C5.26339 31.3764 5 30.7348 5 30.0659C5 29.3969 5.26339 28.7553 5.73223 28.2823C6.20107 27.8093 6.83696 27.5435 7.5 27.5435H18.75C19.413 27.5435 20.0489 27.8093 20.5178 28.2823C20.9866 28.7553 21.25 29.3969 21.25 30.0659C21.25 30.7348 20.9866 31.3764 20.5178 31.8494C20.0489 32.3224 19.413 32.5882 18.75 32.5882Z" fill="#F89C8D"/>
<path d="M20 31.327C20.3539 31.3267 20.7035 31.2493 21.025 31.1C20.9043 31.3799 20.7326 31.6345 20.5188 31.8504C20.0485 32.3218 19.4129 32.587 18.75 32.5882H7.5C7.00526 32.5886 6.52153 32.4409 6.11005 32.1637C5.69856 31.8866 5.37783 31.4925 5.18844 31.0314C4.99906 30.5702 4.94955 30.0628 5.04618 29.5732C5.1428 29.0837 5.38122 28.6341 5.73125 28.2813C5.94528 28.0656 6.19757 27.8923 6.475 27.7705C6.79648 27.6213 7.14612 27.5438 7.5 27.5435H18.75C19.3577 27.5444 19.9442 27.7686 20.4 28.1741C20.7112 28.4453 20.948 28.7928 21.0875 29.183C20.9731 29.3913 20.8055 29.5648 20.6022 29.6857C20.3989 29.8065 20.1672 29.8703 19.9313 29.8704C19.7254 29.8703 19.5224 29.8229 19.3375 29.7316C19.1555 29.6384 18.9542 29.5898 18.75 29.5898C18.5458 29.5898 18.3445 29.6384 18.1625 29.7316L16.8375 30.4001C16.6555 30.4933 16.4542 30.5419 16.25 30.5419C16.0458 30.5419 15.8445 30.4933 15.6625 30.4001L14.3375 29.7316C14.1555 29.6384 13.9542 29.5898 13.75 29.5898C13.5458 29.5898 13.3445 29.6384 13.1625 29.7316L11.8375 30.4001C11.6555 30.4933 11.4542 30.5419 11.25 30.5419C11.0458 30.5419 10.8445 30.4933 10.6625 30.4001L9.3375 29.7316C9.15546 29.6384 8.95417 29.5898 8.75 29.5898C8.54583 29.5898 8.34454 29.6384 8.1625 29.7316L7.15625 30.2424C7.04008 30.2986 6.91865 30.343 6.79375 30.3748C7.02735 30.6723 7.32473 30.9126 7.66355 31.0775C8.00237 31.2424 8.37382 31.3277 8.75 31.327H20Z" fill="#F8664F"/>
<path d="M3.75 35.1105H22.5V36.3716C22.5 37.0406 22.2366 37.6822 21.7678 38.1552C21.2989 38.6282 20.663 38.894 20 38.894H6.25C5.58696 38.894 4.95107 38.6282 4.48223 38.1552C4.01339 37.6822 3.75 37.0406 3.75 36.3716V35.1105Z" fill="#FCBC04"/>
<path d="M14.875 35.1105L14.375 35.7411L13.875 35.1105H14.875Z" fill="#E59730"/>
<path d="M14.875 35.1105L14.375 35.7411L13.875 35.1105H14.875Z" fill="#E59730"/>
<path d="M20 35.1105H6.25C5.91848 35.1105 5.60054 34.9776 5.36612 34.7411C5.1317 34.5046 5 34.1838 5 33.8493C5 33.5148 5.1317 33.1941 5.36612 32.9575C5.60054 32.721 5.91848 32.5882 6.25 32.5882H20C20.3315 32.5882 20.6495 32.721 20.8839 32.9575C21.1183 33.1941 21.25 33.5148 21.25 33.8493C21.25 34.1838 21.1183 34.5046 20.8839 34.7411C20.6495 34.9776 20.3315 35.1105 20 35.1105Z" fill="#CC5144"/>
<path d="M15 35.7411L12.5 32.5882H17.5L15 35.7411Z" fill="#F7F754"/>
<path d="M14.7856 33.2641L14.25 32.5882H12.5L15 35.7411L16.4156 33.9559C16.1084 33.9862 15.7984 33.9389 15.5139 33.8181C15.2293 33.6973 14.979 33.507 14.7856 33.2641Z" fill="#F9E109"/>
<path d="M4.375 27.5435C4.37491 27.9225 4.47948 28.294 4.67698 28.6163C4.87448 28.9387 5.1571 29.1991 5.49313 29.3684L5.97063 29.6093C6.25138 29.7511 6.56103 29.825 6.875 29.825C7.18898 29.825 7.49863 29.7511 7.77938 29.6093L8.785 29.1049C8.96821 29.0125 9.1702 28.9644 9.375 28.9644C9.5798 28.9644 9.7818 29.0125 9.965 29.1049L11.285 29.7707C11.4682 29.8631 11.6702 29.9112 11.875 29.9112C12.0798 29.9112 12.2818 29.8631 12.465 29.7707L13.785 29.1049C13.9682 29.0125 14.1702 28.9644 14.375 28.9644C14.5798 28.9644 14.7818 29.0125 14.965 29.1049L16.285 29.7707C16.4682 29.8631 16.6702 29.9112 16.875 29.9112C17.0798 29.9112 17.2818 29.8631 17.465 29.7707L18.785 29.1049C18.9682 29.0125 19.1702 28.9644 19.375 28.9644C19.5798 28.9644 19.7818 29.0125 19.965 29.1049C20.1664 29.2064 20.3901 29.2542 20.615 29.2439C20.8399 29.2336 21.0584 29.1654 21.2498 29.0458C21.4412 28.9263 21.5992 28.7593 21.7086 28.5608C21.818 28.3623 21.8753 28.1389 21.875 27.9118V27.5435H4.375Z" fill="#C4F236"/>
<path d="M16.25 21.2377H10C8.3424 21.2377 6.75269 21.9021 5.58058 23.0847C4.40848 24.2672 3.75 25.8711 3.75 27.5435H22.5C22.5 25.8711 21.8415 24.2672 20.6694 23.0847C19.4973 21.9021 17.9076 21.2377 16.25 21.2377Z" fill="#FCBC04"/>
<path d="M22.5 27.5435H3.75C3.75057 26.1661 4.19813 24.8268 5.02428 23.7302C5.85044 22.6337 7.00973 21.8402 8.325 21.471C8.64982 22.6716 9.35679 23.7312 10.337 24.4866C11.3173 25.2421 12.5165 25.6514 13.75 25.6518H22.2125C22.4041 26.2637 22.501 26.9018 22.5 27.5435Z" fill="#E59730"/>
<path d="M22.5 36.3716C22.5 37.0406 22.2366 37.6822 21.7678 38.1552C21.2989 38.6282 20.663 38.894 20 38.894H6.25C5.58696 38.894 4.95107 38.6282 4.48223 38.1552C4.01339 37.6822 3.75 37.0406 3.75 36.3716V35.1105H5.08125C5.21895 35.652 5.53143 36.1319 5.96938 36.4745C6.40734 36.817 6.94586 37.0027 7.5 37.0022H20.625C21.3016 37.0049 21.9603 36.7834 22.5 36.3716Z" fill="#E59730"/>
<path d="M21.875 27.5435V27.9093C21.8777 27.9986 21.8672 28.0879 21.8438 28.1741H5.4375C5.61825 28.4121 5.85151 28.6042 6.11875 28.7353L6.59375 28.9813C6.8757 29.1212 7.18575 29.194 7.5 29.194C7.81424 29.194 8.12429 29.1212 8.40625 28.9813L9.4125 28.4705C9.59454 28.3772 9.79583 28.3286 10 28.3286C10.2042 28.3286 10.4055 28.3772 10.5875 28.4705L11.9125 29.1389C12.0945 29.2322 12.2958 29.2808 12.5 29.2808C12.7042 29.2808 12.9055 29.2322 13.0875 29.1389L14.4125 28.4705C14.5945 28.3772 14.7958 28.3286 15 28.3286C15.2042 28.3286 15.4055 28.3772 15.5875 28.4705L16.9125 29.1389C17.0945 29.2322 17.2958 29.2808 17.5 29.2808C17.7042 29.2808 17.9055 29.2322 18.0875 29.1389L19.4125 28.4705C19.5945 28.3772 19.7958 28.3286 20 28.3286C20.2042 28.3286 20.4055 28.3772 20.5875 28.4705C20.7678 28.5615 20.9664 28.6095 21.168 28.6106C21.3696 28.6117 21.5688 28.5659 21.75 28.4768C21.6427 28.7047 21.4737 28.8973 21.2624 29.0324C21.0512 29.1674 20.8063 29.2393 20.5563 29.2398C20.3505 29.2398 20.1474 29.1923 19.9625 29.1011C19.7805 29.0078 19.5792 28.9592 19.375 28.9592C19.1708 28.9592 18.9695 29.0078 18.7875 29.1011L17.4625 29.7695C17.2805 29.8628 17.0792 29.9114 16.875 29.9114C16.6708 29.9114 16.4695 29.8628 16.2875 29.7695L14.9625 29.1011C14.7805 29.0078 14.5792 28.9592 14.375 28.9592C14.1708 28.9592 13.9695 29.0078 13.7875 29.1011L12.4625 29.7695C12.2805 29.8628 12.0792 29.9114 11.875 29.9114C11.6708 29.9114 11.4695 29.8628 11.2875 29.7695L9.9625 29.1011C9.78046 29.0078 9.57917 28.9592 9.375 28.9592C9.17083 28.9592 8.96954 29.0078 8.7875 29.1011L7.78125 29.6118C7.49929 29.7518 7.18924 29.8246 6.875 29.8246C6.56075 29.8246 6.2507 29.7518 5.96875 29.6118L5.49375 29.3659C5.15688 29.1983 4.87343 28.9386 4.67564 28.6164C4.47786 28.2942 4.37369 27.9225 4.375 27.5435H21.875Z" fill="#A1D51C"/>
<path d="M14.375 24.3906C14.7202 24.3906 15 24.1083 15 23.7601C15 23.4118 14.7202 23.1295 14.375 23.1295C14.0298 23.1295 13.75 23.4118 13.75 23.7601C13.75 24.1083 14.0298 24.3906 14.375 24.3906Z" fill="#F9E109"/>
<path d="M11.875 23.76C12.2202 23.76 12.5 23.4777 12.5 23.1295C12.5 22.7812 12.2202 22.4989 11.875 22.4989C11.5298 22.4989 11.25 22.7812 11.25 23.1295C11.25 23.4777 11.5298 23.76 11.875 23.76Z" fill="#F9E109"/>
<path d="M10 25.0212C10.3452 25.0212 10.625 24.7389 10.625 24.3906C10.625 24.0424 10.3452 23.76 10 23.76C9.65482 23.76 9.375 24.0424 9.375 24.3906C9.375 24.7389 9.65482 25.0212 10 25.0212Z" fill="#F9E109"/>
<path d="M19.375 25.0212C19.7202 25.0212 20 24.7389 20 24.3906C20 24.0424 19.7202 23.76 19.375 23.76C19.0298 23.76 18.75 24.0424 18.75 24.3906C18.75 24.7389 19.0298 25.0212 19.375 25.0212Z" fill="#F9E109"/>
<path d="M7.5 24.3906C7.84518 24.3906 8.125 24.1083 8.125 23.7601C8.125 23.4118 7.84518 23.1295 7.5 23.1295C7.15482 23.1295 6.875 23.4118 6.875 23.7601C6.875 24.1083 7.15482 24.3906 7.5 24.3906Z" fill="#FCBC04"/>
<path d="M16.875 23.76C17.2202 23.76 17.5 23.4777 17.5 23.1295C17.5 22.7812 17.2202 22.4989 16.875 22.4989C16.5298 22.4989 16.25 22.7812 16.25 23.1295C16.25 23.4777 16.5298 23.76 16.875 23.76Z" fill="#F9E109"/>
<path d="M10.5688 24.6553C10.5095 24.7866 10.4073 24.8935 10.2794 24.958C10.1514 25.0225 10.0055 25.0408 9.86577 25.0098C9.72608 24.9788 9.60115 24.9004 9.51184 24.7877C9.42253 24.675 9.37423 24.5348 9.375 24.3905C9.37601 24.2874 9.40152 24.1861 9.44937 24.095C9.49722 24.004 9.56602 23.9258 9.65 23.8671H9.65625C9.93061 24.1631 10.2366 24.4274 10.5688 24.6553Z" fill="#FCBC04"/>
</svg>
