<svg width="40" height="40" viewBox="0 0 40 40" fill="none" xmlns="http://www.w3.org/2000/svg">
<path d="M33.2822 17.5625L32.126 5.35156C32.0674 4.71875 31.5635 4.21875 30.9306 4.15625L18.7197 3H18.7041C18.5791 3 18.4814 3.03906 18.4072 3.11328L0.114236 21.4062C0.0780236 21.4424 0.0492939 21.4853 0.0296918 21.5326C0.0100896 21.5798 0 21.6305 0 21.6816C0 21.7328 0.0100896 21.7835 0.0296918 21.8307C0.0492939 21.878 0.0780236 21.9209 0.114236 21.957L14.3252 36.168C14.3994 36.2422 14.497 36.2812 14.6025 36.2812C14.708 36.2812 14.8056 36.2422 14.8799 36.168L33.1728 17.875C33.251 17.793 33.29 17.6797 33.2822 17.5625ZM23.9463 14.7578C22.5674 14.7578 21.4463 13.6367 21.4463 12.2578C21.4463 10.8789 22.5674 9.75781 23.9463 9.75781C25.3252 9.75781 26.4463 10.8789 26.4463 12.2578C26.4463 13.6367 25.3252 14.7578 23.9463 14.7578Z" fill="#A2E8DE"/>
</svg>
